<?xml version="1.0" encoding="iso-8859-1"?>
<!-- Generator: Adobe Illustrator 19.1.0, SVG Export Plug-In . SVG Version: 6.00 Build 0)  -->
<svg xmlns="http://www.w3.org/2000/svg" xmlns:xlink="http://www.w3.org/1999/xlink" version="1.1" id="Capa_1" x="0px" y="0px" viewBox="0 0 325.648 325.648" style="enable-background:new 0 0 325.648 325.648;" xml:space="preserve" width="512px" height="512px">
<g>
	<path d="M259.586,271.238H66.055C29.634,271.238,0,241.604,0,205.19c0-32.61,23.137-59.641,54.68-65.033   c2.834-29.975,27.976-53.323,58.458-53.323c9.422,0,18.599,2.237,26.883,6.51c16.504-24.165,44.127-38.934,73.536-38.934   c49.12,0,89.07,39.949,89.07,89.057c0,3.548-0.251,7.192-0.752,11.061c15.161,12.603,23.773,30.855,23.773,50.663   C325.641,241.604,296.001,271.238,259.586,271.238z M113.132,99.68c-25.302,0-45.881,20.585-45.881,45.894v5.893l-5.861,0.771   c-27.218,2.359-48.542,25.624-48.542,52.951c0,29.332,23.869,53.195,53.201,53.195h193.538c29.332,0,53.195-23.863,53.195-53.195   c0-16.999-7.899-32.584-21.652-42.751l-3.175-2.346l0.656-3.888c0.778-4.602,1.157-8.766,1.157-12.732   c0-42.019-34.191-76.203-76.216-76.203c-26.999,0-52.237,14.563-65.875,38.002l-3.432,5.906l-5.688-3.792   C131.005,102.341,122.213,99.68,113.132,99.68z" fill="#FFFFFF"/>
</g>
<g>
</g>
<g>
</g>
<g>
</g>
<g>
</g>
<g>
</g>
<g>
</g>
<g>
</g>
<g>
</g>
<g>
</g>
<g>
</g>
<g>
</g>
<g>
</g>
<g>
</g>
<g>
</g>
<g>
</g>
</svg>
